<svg width="550" height="388" viewBox="0 0 550 388" fill="none" xmlns="http://www.w3.org/2000/svg">
<path d="M549.439 16.1639V384.661C549.439 386.017 548.338 387.118 546.982 387.118H214.004C212.648 387.118 211.547 386.017 211.547 384.661V16.1639C211.547 14.8077 212.648 13.7065 214.004 13.7065H546.982C548.338 13.7065 549.439 14.8077 549.439 16.1639Z" fill="#D8D8D8"/>
<path d="M538.46 5.46819V373.03C538.46 374.386 537.359 375.487 536.002 375.487H203.025C201.669 375.487 200.567 374.386 200.567 373.03V5.46819C200.567 4.11199 201.669 3.01086 203.025 3.01086H536.002C537.359 3.01086 538.46 4.11199 538.46 5.46819Z" fill="#F4F4F4"/>
<path d="M538.46 5.46819V373.03C538.46 374.386 537.359 375.487 536.002 375.487H203.025C201.669 375.487 200.567 374.386 200.567 373.03V5.46819C200.567 4.11199 201.669 3.01086 203.025 3.01086H536.002C537.359 3.01086 538.46 4.11199 538.46 5.46819Z" stroke="#0C0C0C" stroke-width="4.346"/>
<path d="M537.496 5.77211V81.6756C537.496 82.6594 536.697 83.4582 535.713 83.4582H203.321C202.337 83.4582 201.538 82.6594 201.538 81.6756V5.77211C201.538 4.78829 202.337 3.9895 203.321 3.9895H535.713C536.697 3.9895 537.496 4.78829 537.496 5.77211Z" fill="white"/>
<path d="M498.537 57.1937C492.7 57.1937 487.96 52.4547 487.96 46.618C487.96 40.7812 492.7 36.0422 498.537 36.0422C504.375 36.0422 509.114 40.7812 509.114 46.618C509.114 52.4547 504.375 57.1937 498.537 57.1937Z" fill="#0C0C0C"/>
<path d="M501.722 47.9469L498.54 44.4708L495.348 47.9469" stroke="white" stroke-width="2.814"/>
<path d="M310.814 57.0579C310.814 58.9947 309.241 60.5674 307.304 60.5674H232.894C230.957 60.5674 229.384 58.9947 229.384 57.0579C229.384 55.121 230.957 53.5483 232.894 53.5483H307.304C309.241 53.5483 310.814 55.121 310.814 57.0579Z" fill="#E6E7E8"/>
<path d="M235.338 40.2701C237.906 40.2701 239.742 38.9599 240.063 36.3662H238.102C237.888 37.8903 236.836 38.639 235.338 38.639C233.351 38.639 232.192 37.204 232.192 34.7796V34.6638C232.192 32.2483 233.422 30.7688 235.33 30.7688C236.881 30.7688 237.683 31.5086 237.906 32.9436H239.938C239.697 30.4033 237.781 29.1733 235.312 29.1733C232.308 29.1733 230.079 31.4283 230.079 34.6727V34.7975C230.079 38.1131 231.96 40.2701 235.338 40.2701ZM244.056 40.2701C245.34 40.2701 246.169 39.6551 246.561 38.8796V40.1186H248.389V32.2305H246.561V36.9188C246.561 38.1755 245.697 38.8083 244.716 38.8083C243.664 38.8083 243.165 38.2646 243.165 37.0703V32.2305H241.338V37.2842C241.338 39.3788 242.505 40.2701 244.056 40.2701ZM253.024 40.2701C255.047 40.2701 256.18 39.352 256.18 37.7477C256.18 36.0809 255.074 35.6264 253.22 35.3412C251.972 35.1273 251.598 34.9044 251.598 34.3251C251.598 33.7725 252.061 33.3892 252.846 33.3892C253.693 33.3892 254.094 33.7279 254.245 34.4499H255.939C255.743 32.6673 254.459 32.0701 252.846 32.0701C251.366 32.0701 249.886 32.8544 249.886 34.432C249.886 35.9116 250.662 36.4999 252.739 36.8296C253.898 37.0257 254.432 37.2664 254.432 37.917C254.432 38.5766 253.996 38.9242 253.015 38.9242C251.945 38.9242 251.535 38.4607 251.446 37.6586H249.726C249.797 39.3342 250.992 40.2701 253.024 40.2701ZM260.262 40.2523C260.815 40.2523 261.207 40.1631 261.501 40.0562V38.6123C261.243 38.7192 260.966 38.7638 260.61 38.7638C260.03 38.7638 259.701 38.4429 259.701 37.7477V33.6031H261.439V32.2305H259.701V30.5014H257.873V32.2305H256.821V33.6031H257.873V37.917C257.873 39.4055 258.693 40.2523 260.262 40.2523ZM266.484 38.8529C265.094 38.8529 264.291 37.8457 264.291 36.2236V36.1077C264.291 34.4766 265.12 33.4962 266.484 33.4962C267.839 33.4962 268.65 34.4944 268.65 36.1255V36.2236C268.65 37.8457 267.839 38.8529 266.484 38.8529ZM266.466 40.2701C268.784 40.2701 270.522 38.6746 270.522 36.2146V36.0899C270.522 33.6833 268.784 32.0701 266.484 32.0701C264.158 32.0701 262.428 33.6923 262.428 36.1344V36.2592C262.428 38.6568 264.14 40.2701 266.466 40.2701ZM271.949 40.1186H273.776V35.3946C273.776 34.1914 274.605 33.5853 275.514 33.5853C276.406 33.5853 276.914 34.0844 276.914 35.252V40.1186H278.741V35.3946C278.741 34.1914 279.57 33.5853 280.471 33.5853C281.38 33.5853 281.879 34.0844 281.879 35.252V40.1186H283.697V35.1273C283.697 32.9525 282.521 32.0701 281.077 32.0701C280.096 32.0701 279.009 32.5068 278.411 33.4873C278.019 32.5068 277.199 32.0701 276.174 32.0701C275.015 32.0701 274.15 32.7029 273.776 33.4338V32.2305H271.949V40.1186ZM289.019 40.2701C291.043 40.2701 292.38 39.3609 292.638 37.7031H290.873C290.74 38.4786 290.169 38.9153 289.064 38.9153C287.709 38.9153 286.951 38.0686 286.889 36.5712H292.665V36.0453C292.665 33.2288 290.9 32.0701 288.948 32.0701C286.693 32.0701 285.026 33.6923 285.026 36.1344V36.2592C285.026 38.7459 286.693 40.2701 289.019 40.2701ZM286.924 35.3501C287.103 34.129 287.842 33.3892 288.948 33.3892C290.071 33.3892 290.766 33.9953 290.855 35.3501H286.924ZM294.082 40.1186H295.91V36.0186C295.91 34.3429 296.872 33.8259 298.477 33.817V32.1146C297.149 32.1236 296.409 32.7118 295.91 33.7101V32.2305H294.082V40.1186ZM306.116 38.6301H307.462L307.819 36.1077H309.325V34.6281H308.051L308.291 32.9703H309.718V31.5353H308.496L308.835 29.3338H307.489L307.159 31.5353H305.902L306.223 29.3338H304.895L304.565 31.5353H303.112V32.9703H304.351L304.111 34.6281H302.72V36.1077H303.888L303.522 38.6301H304.868L305.225 36.1077H306.482L306.116 38.6301ZM305.697 32.9703H306.945L306.705 34.6281H305.457L305.697 32.9703ZM314.585 40.2523C317.357 40.2523 318.926 38.2825 318.926 34.7351V34.1736C318.926 31.0718 317.535 29.1733 314.718 29.1733C312.258 29.1733 310.725 30.6618 310.725 32.8633C310.725 34.9936 312.214 36.3662 314.3 36.3662C315.574 36.3662 316.457 35.8225 316.947 35.0025C316.92 37.4625 316.091 38.7014 314.549 38.7014C313.39 38.7014 312.891 38.1577 312.695 37.3109H310.814C311.073 39.1649 312.383 40.2523 314.585 40.2523ZM314.718 34.9579C313.479 34.9579 312.695 34.1023 312.695 32.8009C312.695 31.5264 313.497 30.6618 314.701 30.6618C315.94 30.6618 316.795 31.5086 316.795 32.9525C316.795 34.1468 315.94 34.9579 314.718 34.9579ZM325.148 40.1186H327.091V37.9349H328.544V36.4375H327.091V29.3338H324.577L319.808 37.2218V37.9349H325.148V40.1186ZM321.948 36.4375L325.184 30.8579V36.4375H321.948ZM333.376 40.2701C335.854 40.2701 337.423 39.0312 337.423 37.0436C337.423 35.6086 336.594 34.7173 335.337 34.432C336.38 34.0399 337.084 33.3001 337.084 32.079C337.084 30.4836 335.774 29.1823 333.527 29.1823C331.218 29.1823 329.819 30.6173 329.712 32.489H331.495C331.611 31.4016 332.351 30.7064 333.5 30.7064C334.615 30.7064 335.176 31.357 335.176 32.2305C335.176 33.2377 334.615 33.817 333.376 33.817H332.609V35.252H333.438C334.748 35.252 335.381 35.8403 335.381 37.0079C335.381 38.0864 334.731 38.7638 333.331 38.7638C331.887 38.7638 331.254 37.917 331.147 36.7851H329.32C329.409 38.8529 330.817 40.2701 333.376 40.2701ZM342.45 40.2523C345.231 40.2523 346.8 38.2825 346.8 34.7351V34.1736C346.8 31.0718 345.41 29.1733 342.584 29.1733C340.133 29.1733 338.59 30.6618 338.59 32.8633C338.59 34.9936 340.088 36.3662 342.165 36.3662C343.449 36.3662 344.322 35.8225 344.821 35.0025C344.786 37.4625 343.957 38.7014 342.424 38.7014C341.265 38.7014 340.765 38.1577 340.569 37.3109H338.68C338.938 39.1649 340.248 40.2523 342.45 40.2523ZM342.584 34.9579C341.354 34.9579 340.569 34.1023 340.569 32.8009C340.569 31.5264 341.363 30.6618 342.575 30.6618C343.805 30.6618 344.67 31.5086 344.67 32.9525C344.67 34.1468 343.805 34.9579 342.584 34.9579ZM351.605 40.2701C353.923 40.2701 355.572 38.8351 355.572 36.5623C355.572 34.2983 354.199 32.9436 352.247 32.9436C351.106 32.9436 350.348 33.3625 349.929 33.8438L349.938 30.9203H354.948V29.3338H348.405L348.316 35.3412H349.341C349.822 34.7796 350.482 34.4053 351.587 34.4053C352.782 34.4053 353.53 35.2342 353.53 36.5266C353.53 37.8546 352.826 38.7192 351.587 38.7192C350.197 38.7192 349.795 38.024 349.626 37.0257H347.754C347.879 38.8796 349.065 40.2701 351.605 40.2701Z" fill="#0D0D0D"/>
<path d="M523.785 100.575V176.38C523.785 177.93 522.527 179.188 520.977 179.188H218.046C216.496 179.188 215.238 177.93 215.238 176.38V100.575C215.238 99.0253 216.496 97.7672 218.046 97.7672H520.977C522.527 97.7672 523.785 99.0253 523.785 100.575Z" fill="white"/>
<path d="M275.12 133.364H276.876V129.772H278.196C280.219 129.772 281.654 128.89 281.654 126.902V126.849C281.654 124.87 280.273 123.934 278.16 123.934H275.12V133.364ZM276.876 128.506V125.289H278.16C279.283 125.289 279.943 125.726 279.943 126.849V126.902C279.943 127.945 279.319 128.506 278.16 128.506H276.876ZM282.84 133.364H284.436V129.772C284.436 128.31 285.282 127.865 286.682 127.847V126.358C285.523 126.367 284.872 126.884 284.436 127.758V126.465H282.84V133.364ZM290.952 133.498C292.717 133.498 293.893 132.705 294.116 131.252H292.574C292.449 131.929 291.95 132.312 290.987 132.312C289.802 132.312 289.142 131.573 289.089 130.262H294.143V129.799C294.143 127.33 292.601 126.314 290.88 126.314C288.919 126.314 287.449 127.74 287.449 129.879V129.986C287.449 132.161 288.919 133.498 290.952 133.498ZM289.115 129.193C289.267 128.123 289.918 127.481 290.88 127.481C291.87 127.481 292.476 128.007 292.556 129.193H289.115ZM297.967 133.498C298.983 133.498 299.866 132.892 300.24 132.205V133.364H301.836V123.266H300.24V127.517C299.857 126.831 299.153 126.314 298.03 126.314C296.238 126.314 294.936 127.713 294.936 129.924V130.022C294.936 132.268 296.238 133.498 297.967 133.498ZM298.359 132.232C297.334 132.232 296.568 131.501 296.568 129.986V129.879C296.568 128.391 297.254 127.571 298.431 127.571C299.59 127.571 300.294 128.319 300.294 129.843V129.95C300.294 131.492 299.474 132.232 298.359 132.232ZM303.583 133.364H305.179V126.465H303.583V133.364ZM304.367 125.325C304.893 125.325 305.312 124.932 305.312 124.415C305.312 123.89 304.893 123.497 304.367 123.497C303.833 123.497 303.414 123.89 303.414 124.415C303.414 124.932 303.833 125.325 304.367 125.325ZM309.983 133.498C311.864 133.498 313.059 132.375 313.184 130.788H311.713C311.624 131.769 310.902 132.268 310.055 132.268C308.878 132.268 308.138 131.475 308.138 129.977V129.87C308.138 128.444 308.914 127.597 310.01 127.597C310.857 127.597 311.463 127.981 311.597 128.908H313.139C312.952 127 311.517 126.314 309.983 126.314C308.058 126.314 306.507 127.704 306.507 129.897V129.995C306.507 132.205 308.004 133.498 309.983 133.498ZM316.713 133.48C317.204 133.48 317.551 133.4 317.801 133.311V132.045C317.578 132.134 317.337 132.179 317.017 132.179C316.517 132.179 316.232 131.902 316.232 131.296V127.66H317.748V126.465H316.232V124.941H314.637V126.465H313.709V127.66H314.637V131.439C314.637 132.74 315.341 133.48 316.713 133.48ZM322.107 133.498C323.88 133.498 325.048 132.705 325.271 131.252H323.729C323.613 131.929 323.114 132.312 322.151 132.312C320.957 132.312 320.297 131.573 320.243 130.262H325.298V129.799C325.298 127.33 323.756 126.314 322.044 126.314C320.074 126.314 318.612 127.74 318.612 129.879V129.986C318.612 132.161 320.074 133.498 322.107 133.498ZM320.27 129.193C320.431 128.123 321.081 127.481 322.044 127.481C323.034 127.481 323.64 128.007 323.72 129.193H320.27ZM329.131 133.498C330.147 133.498 331.03 132.892 331.395 132.205V133.364H332.991V123.266H331.395V127.517C331.012 126.831 330.316 126.314 329.193 126.314C327.402 126.314 326.091 127.713 326.091 129.924V130.022C326.091 132.268 327.402 133.498 329.131 133.498ZM329.523 132.232C328.498 132.232 327.731 131.501 327.731 129.986V129.879C327.731 128.391 328.418 127.571 329.594 127.571C330.753 127.571 331.449 128.319 331.449 129.843V129.95C331.449 131.492 330.628 132.232 329.523 132.232ZM341.958 133.498C344.196 133.498 345.809 132.348 346.085 130.075H344.374C344.187 131.412 343.26 132.072 341.958 132.072C340.211 132.072 339.195 130.815 339.195 128.694V128.587C339.195 126.474 340.282 125.182 341.94 125.182C343.304 125.182 344 125.833 344.196 127.08H345.978C345.773 124.87 344.098 123.783 341.931 123.783C339.302 123.783 337.35 125.761 337.35 128.605V128.703C337.35 131.608 338.999 133.498 341.958 133.498ZM350.364 132.259C349.143 132.259 348.448 131.368 348.448 129.959V129.852C348.448 128.426 349.17 127.571 350.364 127.571C351.55 127.571 352.263 128.444 352.263 129.87V129.959C352.263 131.368 351.55 132.259 350.364 132.259ZM350.346 133.498C352.379 133.498 353.894 132.098 353.894 129.95V129.843C353.894 127.731 352.379 126.314 350.364 126.314C348.332 126.314 346.807 127.74 346.807 129.879V129.986C346.807 132.081 348.314 133.498 350.346 133.498ZM355.151 133.364H356.747V129.3C356.747 128.203 357.469 127.651 358.369 127.651C359.314 127.651 359.742 128.123 359.742 129.166V133.364H361.337V129.023C361.337 127.125 360.357 126.314 358.975 126.314C357.843 126.314 357.077 126.884 356.747 127.562V126.465H355.151V133.364ZM364.787 133.364H366.65L369.146 126.465H367.577L365.795 131.724L363.985 126.465H362.273L364.787 133.364ZM373.256 133.498C375.021 133.498 376.197 132.705 376.42 131.252H374.878C374.753 131.929 374.254 132.312 373.291 132.312C372.106 132.312 371.446 131.573 371.393 130.262H376.447V129.799C376.447 127.33 374.905 126.314 373.184 126.314C371.223 126.314 369.752 127.74 369.752 129.879V129.986C369.752 132.161 371.223 133.498 373.256 133.498ZM371.419 129.193C371.58 128.123 372.222 127.481 373.184 127.481C374.174 127.481 374.78 128.007 374.86 129.193H371.419ZM377.686 133.364H379.282V129.772C379.282 128.31 380.128 127.865 381.528 127.847V126.358C380.369 126.367 379.718 126.884 379.282 127.758V126.465H377.686V133.364ZM385.12 133.498C386.885 133.498 387.875 132.696 387.875 131.296C387.875 129.826 386.912 129.433 385.29 129.184C384.193 128.997 383.863 128.801 383.863 128.301C383.863 127.811 384.273 127.481 384.96 127.481C385.7 127.481 386.056 127.767 386.19 128.4H387.67C387.491 126.849 386.377 126.314 384.96 126.314C383.667 126.314 382.375 127 382.375 128.391C382.375 129.683 383.043 130.2 384.871 130.485C385.887 130.663 386.35 130.868 386.35 131.439C386.35 132.018 385.967 132.321 385.102 132.321C384.166 132.321 383.81 131.911 383.73 131.216H382.232C382.295 132.678 383.337 133.498 385.12 133.498ZM389.141 133.364H390.736V126.465H389.141V133.364ZM389.916 125.325C390.442 125.325 390.87 124.932 390.87 124.415C390.87 123.89 390.442 123.497 389.916 123.497C389.39 123.497 388.971 123.89 388.971 124.415C388.971 124.932 389.39 125.325 389.916 125.325ZM395.603 132.259C394.391 132.259 393.696 131.368 393.696 129.959V129.852C393.696 128.426 394.418 127.571 395.603 127.571C396.798 127.571 397.511 128.444 397.511 129.87V129.959C397.511 131.368 396.798 132.259 395.603 132.259ZM395.594 133.498C397.627 133.498 399.142 132.098 399.142 129.95V129.843C399.142 127.731 397.627 126.314 395.603 126.314C393.571 126.314 392.055 127.74 392.055 129.879V129.986C392.055 132.081 393.562 133.498 395.594 133.498ZM400.39 133.364H401.995V129.3C401.995 128.203 402.717 127.651 403.617 127.651C404.562 127.651 404.99 128.123 404.99 129.166V133.364H406.585V129.023C406.585 127.125 405.605 126.314 404.223 126.314C403.082 126.314 402.325 126.884 401.995 127.562V126.465H400.39V133.364Z" fill="#0D0D0D"/>
<path d="M464.514 145.681C467.723 145.681 469.737 143.747 469.737 140.877C469.737 138.123 467.803 136.26 465.084 136.26C463.408 136.26 462.241 136.991 461.581 138.078C461.661 134.861 462.909 133.176 464.808 133.176C466.181 133.176 466.733 133.809 466.992 134.878H469.443C469.104 132.401 467.402 131.135 464.835 131.135C461.447 131.135 458.969 133.809 458.969 138.72V139.05C458.969 142.793 460.395 145.681 464.514 145.681ZM464.478 143.747C462.873 143.747 461.741 142.651 461.741 140.77C461.741 139.21 462.873 138.078 464.478 138.078C466.1 138.078 467.126 139.228 467.126 140.93C467.126 142.615 466.056 143.747 464.478 143.747ZM477.689 145.485H480.247V142.615H482.146V140.654H480.247V131.331H476.94L470.682 141.688V142.615H477.689V145.485ZM473.49 140.654L477.733 133.337V140.654H473.49ZM486.532 136.456C485.596 136.456 485.007 135.823 485.007 134.62C485.007 133.435 485.596 132.775 486.532 132.775C487.459 132.775 488.038 133.47 488.038 134.62C488.038 135.788 487.459 136.456 486.532 136.456ZM486.514 138.06C488.448 138.06 489.955 136.599 489.955 134.602C489.955 132.623 488.43 131.197 486.532 131.197C484.633 131.197 483.064 132.659 483.064 134.638C483.064 136.599 484.57 138.06 486.514 138.06ZM485.007 145.485H486.692L495.793 131.331H494.135L485.007 145.485ZM494.287 144.077C493.36 144.077 492.762 143.444 492.762 142.241C492.762 141.055 493.36 140.396 494.287 140.396C495.223 140.396 495.793 141.091 495.793 142.241C495.793 143.408 495.223 144.077 494.287 144.077ZM494.269 145.681C496.212 145.681 497.737 144.219 497.737 142.223C497.737 140.244 496.194 138.818 494.287 138.818C492.388 138.818 490.846 140.28 490.846 142.258C490.846 144.219 492.335 145.681 494.269 145.681Z" fill="#0D0D0D"/>
<path d="M274.88 149.889H276.181V142.937H274.88V149.889ZM277.607 149.889H278.784V146.894C278.784 146.092 279.319 145.682 279.979 145.682C280.683 145.682 280.986 146.03 280.986 146.796V149.889H282.162V146.689C282.162 145.29 281.449 144.702 280.424 144.702C279.586 144.702 279.025 145.12 278.784 145.611V144.808H277.607V149.889ZM287.306 149.978C287.671 149.978 287.921 149.916 288.108 149.853V148.917C287.939 148.989 287.769 149.015 287.529 149.015C287.163 149.015 286.949 148.81 286.949 148.365V145.691H288.064V144.808H286.949V143.685H285.773V144.808H285.095V145.691H285.773V148.472C285.773 149.434 286.299 149.978 287.306 149.978ZM289.044 149.889H290.221V146.894C290.221 146.092 290.756 145.682 291.415 145.682C292.12 145.682 292.423 146.03 292.423 146.796V149.889H293.599V146.689C293.599 145.29 292.886 144.702 291.861 144.702C291.023 144.702 290.461 145.12 290.221 145.611V142.455H289.044V149.889ZM297.049 149.987C298.35 149.987 299.215 149.399 299.385 148.338H298.243C298.154 148.828 297.789 149.113 297.076 149.113C296.202 149.113 295.721 148.57 295.676 147.607H299.402V147.268C299.402 145.45 298.261 144.702 297.004 144.702C295.551 144.702 294.473 145.753 294.473 147.322V147.402C294.473 149.007 295.551 149.987 297.049 149.987ZM295.703 146.814C295.819 146.03 296.291 145.557 297.004 145.557C297.735 145.557 298.181 145.94 298.235 146.814H295.703ZM302.513 149.889H303.69V146.894C303.69 146.092 304.225 145.682 304.885 145.682C305.589 145.682 305.901 146.03 305.901 146.796V149.889H307.077V146.689C307.077 145.29 306.355 144.702 305.339 144.702C304.501 144.702 303.94 145.12 303.69 145.611V144.808H302.513V149.889ZM310.527 149.987C311.829 149.987 312.693 149.399 312.854 148.338H311.722C311.632 148.828 311.258 149.113 310.554 149.113C309.68 149.113 309.19 148.57 309.154 147.607H312.872V147.268C312.872 145.45 311.739 144.702 310.474 144.702C309.03 144.702 307.951 145.753 307.951 147.322V147.402C307.951 149.007 309.03 149.987 310.527 149.987ZM309.172 146.814C309.288 146.03 309.769 145.557 310.474 145.557C311.205 145.557 311.65 145.94 311.713 146.814H309.172ZM313.29 149.889H314.521L315.733 148.053L316.919 149.889H318.291L316.473 147.197L318.113 144.808H316.883L315.831 146.448L314.77 144.808H313.406L315.064 147.286L313.29 149.889ZM320.787 149.978C321.144 149.978 321.402 149.916 321.59 149.853V148.917C321.42 148.989 321.242 149.015 321.01 149.015C320.645 149.015 320.431 148.81 320.431 148.365V145.691H321.545V144.808H320.431V143.685H319.254V144.808H318.577V145.691H319.254V148.472C319.254 149.434 319.78 149.978 320.787 149.978ZM325.307 149.889H326.635L329.167 143.097V142.937H324.308V143.988H327.544L325.307 149.889ZM334.043 149.987C334.791 149.987 335.442 149.541 335.709 149.033V149.889H336.886V142.455H335.709V145.584C335.433 145.076 334.916 144.702 334.087 144.702C332.768 144.702 331.805 145.727 331.805 147.349V147.429C331.805 149.087 332.768 149.987 334.043 149.987ZM334.328 149.051C333.57 149.051 333.008 148.516 333.008 147.402V147.322C333.008 146.226 333.517 145.62 334.381 145.62C335.237 145.62 335.754 146.181 335.754 147.295V147.375C335.754 148.507 335.148 149.051 334.328 149.051ZM339.48 149.987C340.256 149.987 340.701 149.702 341.031 149.265V149.889H342.19V146.555C342.19 145.165 341.299 144.702 340.158 144.702C339.026 144.702 338.081 145.192 337.983 146.377H339.124C339.177 145.878 339.48 145.584 340.095 145.584C340.782 145.584 341.013 145.923 341.013 146.6V146.867H340.38C338.927 146.867 337.778 147.295 337.778 148.481C337.778 149.541 338.544 149.987 339.48 149.987ZM339.765 149.14C339.177 149.14 338.945 148.855 338.945 148.427C338.945 147.812 339.516 147.607 340.416 147.607H341.013V148.106C341.013 148.766 340.479 149.14 339.765 149.14ZM343.973 151.627H345.132L347.895 144.808H346.754L345.506 148.08L344.16 144.808H342.885L344.891 149.372L343.973 151.627ZM350.436 149.987C351.737 149.987 352.468 149.39 352.468 148.365C352.468 147.286 351.755 146.992 350.56 146.805C349.758 146.671 349.508 146.529 349.508 146.154C349.508 145.798 349.812 145.557 350.32 145.557C350.863 145.557 351.122 145.771 351.22 146.235H352.308C352.183 145.085 351.363 144.702 350.32 144.702C349.366 144.702 348.412 145.201 348.412 146.226C348.412 147.179 348.911 147.554 350.248 147.768C350.997 147.892 351.336 148.053 351.336 148.472C351.336 148.9 351.06 149.122 350.427 149.122C349.74 149.122 349.473 148.819 349.419 148.302H348.305C348.359 149.381 349.125 149.987 350.436 149.987Z" fill="#9FAAB3"/>
<path d="M247.029 125.609C253.817 125.609 259.328 131.119 259.328 137.906C259.328 144.693 253.817 150.204 247.029 150.204C240.242 150.204 234.73 144.693 234.73 137.906C234.73 131.119 240.242 125.609 247.029 125.609Z" fill="#7E5EFF"/>
<path d="M523.785 186.909V262.715C523.785 264.264 522.527 265.522 520.977 265.522H218.046C216.496 265.522 215.238 264.264 215.238 262.715V186.909C215.238 185.36 216.496 184.102 218.046 184.102H520.977C522.527 184.102 523.785 185.36 523.785 186.909Z" fill="white"/>
<path d="M279.8 211.088H281.556V207.497H282.876C284.899 207.497 286.334 206.614 286.334 204.618V204.564C286.334 202.585 284.953 201.65 282.84 201.65H279.8V211.088ZM281.556 206.231V203.013H282.84C283.963 203.013 284.623 203.441 284.623 204.564V204.618C284.623 205.66 283.999 206.231 282.84 206.231H281.556ZM287.52 211.088H289.115V207.497C289.115 206.035 289.962 205.58 291.362 205.571V204.074C290.203 204.092 289.552 204.609 289.115 205.473V204.181H287.52V211.088ZM295.632 211.213C297.397 211.213 298.573 210.429 298.796 208.976H297.254C297.129 209.645 296.63 210.028 295.667 210.028C294.482 210.028 293.822 209.288 293.769 207.987H298.823V207.523C298.823 205.054 297.281 204.038 295.56 204.038C293.599 204.038 292.128 205.464 292.128 207.603V207.71C292.128 209.885 293.599 211.213 295.632 211.213ZM293.795 206.917C293.947 205.848 294.598 205.197 295.56 205.197C296.55 205.197 297.156 205.723 297.236 206.917H293.795ZM302.647 211.213C303.663 211.213 304.546 210.607 304.92 209.921V211.088H306.516V200.99H304.92V205.242C304.537 204.555 303.833 204.038 302.709 204.038C300.918 204.038 299.616 205.438 299.616 207.639V207.746C299.616 209.992 300.918 211.213 302.647 211.213ZM303.039 209.948C302.014 209.948 301.248 209.226 301.248 207.71V207.603C301.248 206.106 301.934 205.295 303.111 205.295C304.269 205.295 304.974 206.044 304.974 207.559V207.666C304.974 209.208 304.154 209.948 303.039 209.948ZM308.263 211.088H309.859V204.181H308.263V211.088ZM309.047 203.049C309.573 203.049 309.992 202.657 309.992 202.14C309.992 201.614 309.573 201.213 309.047 201.213C308.513 201.213 308.094 201.614 308.094 202.14C308.094 202.657 308.513 203.049 309.047 203.049ZM314.663 211.213C316.544 211.213 317.739 210.099 317.863 208.513H316.393C316.303 209.484 315.581 209.992 314.735 209.992C313.558 209.992 312.818 209.199 312.818 207.693V207.586C312.818 206.16 313.594 205.322 314.69 205.322C315.537 205.322 316.143 205.705 316.277 206.623H317.819C317.632 204.725 316.196 204.038 314.663 204.038C312.738 204.038 311.187 205.42 311.187 207.612V207.719C311.187 209.921 312.684 211.213 314.663 211.213ZM321.393 211.204C321.884 211.204 322.231 211.124 322.481 211.035V209.769C322.258 209.858 322.017 209.894 321.696 209.894C321.197 209.894 320.912 209.618 320.912 209.012V205.384H322.427V204.181H320.912V202.666H319.316V204.181H318.389V205.384H319.316V209.154C319.316 210.465 320.021 211.204 321.393 211.204ZM326.786 211.213C328.56 211.213 329.728 210.429 329.951 208.976H328.409C328.293 209.645 327.794 210.028 326.831 210.028C325.637 210.028 324.977 209.288 324.923 207.987H329.978V207.523C329.978 205.054 328.436 204.038 326.724 204.038C324.754 204.038 323.292 205.464 323.292 207.603V207.71C323.292 209.885 324.754 211.213 326.786 211.213ZM324.95 206.917C325.111 205.848 325.761 205.197 326.724 205.197C327.713 205.197 328.32 205.723 328.4 206.917H324.95ZM333.811 211.213C334.827 211.213 335.709 210.607 336.075 209.921V211.088H337.671V200.99H336.075V205.242C335.692 204.555 334.996 204.038 333.873 204.038C332.081 204.038 330.771 205.438 330.771 207.639V207.746C330.771 209.992 332.081 211.213 333.811 211.213ZM334.203 209.948C333.178 209.948 332.411 209.226 332.411 207.71V207.603C332.411 206.106 333.098 205.295 334.274 205.295C335.433 205.295 336.128 206.044 336.128 207.559V207.666C336.128 209.208 335.308 209.948 334.203 209.948ZM342.502 211.088H344.258V207.497H345.577C347.601 207.497 349.036 206.614 349.036 204.618V204.564C349.036 202.585 347.654 201.65 345.542 201.65H342.502V211.088ZM344.258 206.231V203.013H345.542C346.665 203.013 347.325 203.441 347.325 204.564V204.618C347.325 205.66 346.701 206.231 345.542 206.231H344.258ZM350.222 211.088H351.817V207.497C351.817 206.035 352.664 205.58 354.064 205.571V204.074C352.905 204.092 352.254 204.609 351.817 205.473V204.181H350.222V211.088ZM358.378 209.974C357.166 209.974 356.47 209.092 356.47 207.684V207.577C356.47 206.151 357.192 205.295 358.378 205.295C359.572 205.295 360.286 206.16 360.286 207.586V207.684C360.286 209.092 359.572 209.974 358.378 209.974ZM358.369 211.213C360.402 211.213 361.917 209.814 361.917 207.666V207.559C361.917 205.447 360.402 204.038 358.378 204.038C356.346 204.038 354.83 205.464 354.83 207.603V207.71C354.83 209.805 356.337 211.213 358.369 211.213ZM365.759 211.213C366.775 211.213 367.658 210.607 368.023 209.921V211.088H369.619V200.99H368.023V205.242C367.64 204.555 366.944 204.038 365.821 204.038C364.03 204.038 362.719 205.438 362.719 207.639V207.746C362.719 209.992 364.03 211.213 365.759 211.213ZM366.151 209.948C365.126 209.948 364.359 209.226 364.359 207.71V207.603C364.359 206.106 365.046 205.295 366.214 205.295C367.381 205.295 368.077 206.044 368.077 207.559V207.666C368.077 209.208 367.256 209.948 366.151 209.948ZM373.639 211.213C374.762 211.213 375.493 210.678 375.832 210.001V211.088H377.427V204.181H375.832V208.29C375.832 209.386 375.083 209.939 374.218 209.939C373.3 209.939 372.863 209.457 372.863 208.423V204.181H371.268V208.602C371.268 210.438 372.284 211.213 373.639 211.213ZM382.152 211.213C384.024 211.213 385.227 210.099 385.343 208.513H383.881C383.783 209.484 383.061 209.992 382.214 209.992C381.047 209.992 380.307 209.199 380.307 207.693V207.586C380.307 206.16 381.082 205.322 382.179 205.322C383.025 205.322 383.632 205.705 383.765 206.623H385.308C385.12 204.725 383.685 204.038 382.152 204.038C380.226 204.038 378.666 205.42 378.666 207.612V207.719C378.666 209.921 380.173 211.213 382.152 211.213ZM388.882 211.204C389.372 211.204 389.711 211.124 389.961 211.035V209.769C389.738 209.858 389.506 209.894 389.185 209.894C388.686 209.894 388.392 209.618 388.392 209.012V205.384H389.907V204.181H388.392V202.666H386.796V204.181H385.869V205.384H386.796V209.154C386.796 210.465 387.509 211.204 388.882 211.204ZM283.936 227.078C286.174 227.078 287.787 225.938 288.064 223.665H286.352C286.165 224.993 285.238 225.652 283.936 225.652C282.189 225.652 281.173 224.405 281.173 222.274V222.176C281.173 220.064 282.26 218.772 283.919 218.772C285.282 218.772 285.978 219.413 286.174 220.67H287.957C287.752 218.451 286.076 217.372 283.91 217.372C281.28 217.372 279.328 219.351 279.328 222.185V222.292C279.328 225.198 280.977 227.078 283.936 227.078ZM291.059 227.078C292.111 227.078 292.726 226.695 293.171 226.107V226.954H294.74V222.426C294.74 220.536 293.528 219.903 291.986 219.903C290.435 219.903 289.16 220.581 289.026 222.185H290.568C290.649 221.499 291.059 221.107 291.888 221.107C292.824 221.107 293.145 221.57 293.145 222.488V222.845H292.289C290.31 222.845 288.75 223.424 288.75 225.037C288.75 226.472 289.793 227.078 291.059 227.078ZM291.442 225.938C290.649 225.938 290.337 225.554 290.337 224.966C290.337 224.128 291.112 223.852 292.325 223.852H293.145V224.538C293.145 225.421 292.414 225.938 291.442 225.938ZM298.743 227.07C299.233 227.07 299.572 226.989 299.821 226.9V225.635C299.598 225.724 299.358 225.759 299.046 225.759C298.547 225.759 298.252 225.483 298.252 224.877V221.249H299.768V220.046H298.252V218.531H296.657V220.046H295.73V221.249H296.657V225.02C296.657 226.33 297.37 227.07 298.743 227.07ZM304.136 227.078C305.901 227.078 307.077 226.294 307.3 224.841H305.758C305.633 225.51 305.134 225.893 304.171 225.893C302.986 225.893 302.326 225.153 302.273 223.852H307.327V223.388C307.327 220.92 305.785 219.903 304.064 219.903C302.103 219.903 300.632 221.33 300.632 223.469V223.576C300.632 225.75 302.103 227.078 304.136 227.078ZM302.299 222.782C302.46 221.713 303.102 221.062 304.064 221.062C305.054 221.062 305.66 221.588 305.74 222.782H302.299ZM311.508 229.485C313.647 229.485 315.002 228.469 315.02 226.437V220.046H313.424V221.107C313.023 220.42 312.337 219.903 311.205 219.903C309.422 219.903 308.102 221.356 308.102 223.29V223.388C308.102 225.376 309.44 226.668 311.169 226.668C312.185 226.668 313.041 226.053 313.424 225.394V226.41C313.424 227.649 312.738 228.273 311.499 228.273C310.456 228.273 309.921 227.872 309.796 227.185H308.183C308.37 228.505 309.342 229.485 311.508 229.485ZM311.561 225.447C310.536 225.447 309.743 224.654 309.743 223.371V223.273C309.743 222.016 310.429 221.16 311.615 221.16C312.765 221.16 313.478 221.936 313.478 223.246V223.335C313.478 224.654 312.666 225.447 311.561 225.447ZM319.816 225.84C318.603 225.84 317.908 224.957 317.908 223.549V223.442C317.908 222.016 318.63 221.16 319.816 221.16C321.001 221.16 321.714 222.025 321.714 223.451V223.549C321.714 224.957 321.001 225.84 319.816 225.84ZM319.807 227.078C321.839 227.078 323.354 225.679 323.354 223.531V223.424C323.354 221.312 321.839 219.903 319.816 219.903C317.783 219.903 316.268 221.33 316.268 223.469V223.576C316.268 225.67 317.774 227.078 319.807 227.078ZM324.602 226.954H326.198V223.362C326.198 221.9 327.045 221.445 328.444 221.437V219.939C327.286 219.957 326.635 220.474 326.198 221.338V220.046H324.602V226.954ZM330.441 229.316H332.01L335.772 220.046H334.212L332.527 224.494L330.691 220.046H328.961L331.698 226.25L330.441 229.316Z" fill="#0D0D0D"/>
<path d="M282.564 245.46C284.213 245.46 285.398 244.613 285.603 242.946H284.337C284.204 243.927 283.526 244.408 282.564 244.408C281.28 244.408 280.531 243.49 280.531 241.921V241.841C280.531 240.29 281.325 239.337 282.555 239.337C283.553 239.337 284.07 239.809 284.213 240.736H285.523C285.372 239.105 284.132 238.303 282.537 238.303C280.611 238.303 279.167 239.764 279.167 241.85V241.93C279.167 244.069 280.38 245.46 282.564 245.46ZM286.504 245.362H287.68V237.928H286.504V245.362ZM291.273 244.542C290.372 244.542 289.864 243.891 289.864 242.857V242.777C289.864 241.725 290.399 241.092 291.273 241.092C292.146 241.092 292.672 241.734 292.672 242.786V242.857C292.672 243.891 292.146 244.542 291.273 244.542ZM291.264 245.46C292.752 245.46 293.876 244.426 293.876 242.848V242.768C293.876 241.208 292.752 240.174 291.273 240.174C289.775 240.174 288.652 241.226 288.652 242.795V242.875C288.652 244.417 289.766 245.46 291.264 245.46ZM296.523 245.451C296.889 245.451 297.138 245.389 297.325 245.326V244.39C297.156 244.462 296.978 244.488 296.746 244.488C296.38 244.488 296.166 244.283 296.166 243.838V241.164H297.281V240.281H296.166V239.158H294.99V240.281H294.312V241.164H294.99V243.945C294.99 244.907 295.516 245.451 296.523 245.451ZM298.261 245.362H299.438V242.367C299.438 241.565 299.973 241.155 300.632 241.155C301.328 241.155 301.64 241.502 301.64 242.269V245.362H302.816V242.162C302.816 240.763 302.103 240.174 301.078 240.174C300.24 240.174 299.679 240.593 299.438 241.084V237.928H298.261V245.362ZM304.064 245.362H305.232V240.281H304.064V245.362ZM304.635 239.444C305.018 239.444 305.33 239.149 305.33 238.775C305.33 238.383 305.018 238.089 304.635 238.089C304.243 238.089 303.931 238.383 303.931 238.775C303.931 239.149 304.243 239.444 304.635 239.444ZM306.551 245.362H307.728V242.367C307.728 241.565 308.263 241.155 308.923 241.155C309.618 241.155 309.93 241.502 309.93 242.269V245.362H311.107V242.162C311.107 240.763 310.393 240.174 309.368 240.174C308.53 240.174 307.969 240.593 307.728 241.084V240.281H306.551V245.362ZM314.485 247.225C316.063 247.225 317.061 246.476 317.07 244.979V240.281H315.902V241.057C315.608 240.549 315.1 240.174 314.262 240.174C312.952 240.174 311.98 241.244 311.98 242.67V242.741C311.98 244.203 312.961 245.157 314.235 245.157C314.984 245.157 315.617 244.702 315.902 244.212V244.961C315.902 245.879 315.394 246.333 314.476 246.333C313.709 246.333 313.326 246.039 313.228 245.54H312.042C312.176 246.512 312.898 247.225 314.485 247.225ZM314.53 244.257C313.772 244.257 313.184 243.668 313.184 242.732V242.652C313.184 241.725 313.692 241.092 314.565 241.092C315.412 241.092 315.938 241.672 315.938 242.634V242.697C315.938 243.668 315.341 244.257 314.53 244.257Z" fill="#9FAAB3"/>
<path d="M247.029 210.539C253.817 210.539 259.328 216.05 259.328 222.837C259.328 229.624 253.817 235.134 247.029 235.134C240.242 235.134 234.73 229.624 234.73 222.837C234.73 216.05 240.242 210.539 247.029 210.539Z" fill="#28D4D4"/>
<path d="M509.441 196.729V252.895C509.441 254.445 508.183 255.703 506.633 255.703H450.46C448.91 255.703 447.652 254.445 447.652 252.895V196.729C447.652 195.179 448.91 193.921 450.46 193.921H506.633C508.183 193.921 509.441 195.179 509.441 196.729Z" fill="#F4F4F4"/>
<path d="M465.309 229.423V231.089C465.309 231.704 465.808 232.203 466.423 232.203H489.769C490.384 232.203 490.883 231.704 490.883 231.089V229.423H465.309Z" fill="#0C0C0C"/>
<path d="M489.439 224.995L484.938 223.31L477.147 217.748H474.758L474.597 217.971C474.597 217.971 473.091 219.968 470.595 219.968C468.09 219.968 466.584 217.971 466.584 217.971L466.423 217.748H465.862C465.558 217.748 465.309 217.998 465.309 218.301V229.424H490.883V227.071C490.883 226.144 490.304 225.315 489.439 224.995Z" fill="#825BFF"/>
<path d="M477.15 217.748H474.761L474.592 217.971C474.592 217.971 474.039 218.747 472.979 219.308L472.203 219.754L477.739 223.22C477.828 223.273 477.926 223.31 478.033 223.31H484.879L477.15 217.748Z" fill="#9E7EFF"/>
<path d="M478.373 218.638L477.098 219.912C476.875 220.135 476.875 220.474 477.098 220.697C477.205 220.804 477.374 220.857 477.481 220.857C477.597 220.857 477.766 220.804 477.873 220.697L479.317 219.253L478.373 218.638Z" fill="#E6E6E6"/>
<path d="M479.705 222.414C479.874 222.414 479.99 222.361 480.097 222.254L481.488 220.863L480.597 220.195L479.322 221.47C479.099 221.692 479.099 222.031 479.322 222.254C479.429 222.361 479.598 222.414 479.705 222.414Z" fill="#E6E6E6"/>
<path d="M523.785 273.244V349.049C523.785 350.599 522.527 351.857 520.977 351.857H218.046C216.496 351.857 215.238 350.599 215.238 349.049V273.244C215.238 271.694 216.496 270.436 218.046 270.436H520.977C522.527 270.436 523.785 271.694 523.785 273.244Z" fill="white"/>
<path d="M279.8 306.559H281.556V302.967H282.876C284.899 302.967 286.334 302.084 286.334 300.088V300.034C286.334 298.056 284.953 297.12 282.84 297.12H279.8V306.559ZM281.556 301.701V298.484H282.84C283.963 298.484 284.623 298.911 284.623 300.034V300.088C284.623 301.131 283.999 301.701 282.84 301.701H281.556ZM287.52 306.559H289.115V302.967C289.115 301.505 289.962 301.051 291.362 301.042V299.544C290.203 299.562 289.552 300.079 289.115 300.944V299.651H287.52V306.559ZM295.632 306.684C297.397 306.684 298.573 305.899 298.796 304.446H297.254C297.129 305.115 296.63 305.498 295.667 305.498C294.482 305.498 293.822 304.758 293.769 303.457H298.823V302.994C298.823 300.525 297.281 299.509 295.56 299.509C293.599 299.509 292.128 300.935 292.128 303.074V303.181C292.128 305.356 293.599 306.684 295.632 306.684ZM293.795 302.388C293.947 301.318 294.598 300.667 295.56 300.667C296.55 300.667 297.156 301.193 297.236 302.388H293.795ZM302.647 306.684C303.663 306.684 304.546 306.078 304.92 305.391V306.559H306.516V296.46H304.92V300.712C304.537 300.026 303.833 299.509 302.709 299.509C300.918 299.509 299.616 300.908 299.616 303.109V303.216C299.616 305.463 300.918 306.684 302.647 306.684ZM303.039 305.418C302.014 305.418 301.247 304.696 301.247 303.181V303.074C301.247 301.576 301.934 300.765 303.111 300.765C304.269 300.765 304.974 301.514 304.974 303.029V303.136C304.974 304.678 304.153 305.418 303.039 305.418ZM308.263 306.559H309.859V299.651H308.263V306.559ZM309.047 298.519C309.573 298.519 309.992 298.127 309.992 297.61C309.992 297.084 309.573 296.683 309.047 296.683C308.512 296.683 308.094 297.084 308.094 297.61C308.094 298.127 308.512 298.519 309.047 298.519ZM314.663 306.684C316.544 306.684 317.739 305.569 317.863 303.983H316.393C316.303 304.954 315.581 305.463 314.735 305.463C313.558 305.463 312.818 304.669 312.818 303.163V303.056C312.818 301.63 313.594 300.792 314.69 300.792C315.537 300.792 316.143 301.175 316.277 302.093H317.819C317.632 300.195 316.196 299.509 314.663 299.509C312.738 299.509 311.187 300.89 311.187 303.083V303.19C311.187 305.391 312.684 306.684 314.663 306.684ZM321.393 306.675C321.884 306.675 322.231 306.594 322.481 306.505V305.24C322.258 305.329 322.017 305.364 321.696 305.364C321.197 305.364 320.912 305.088 320.912 304.482V300.854H322.427V299.651H320.912V298.136H319.316V299.651H318.389V300.854H319.316V304.625C319.316 305.935 320.021 306.675 321.393 306.675ZM326.786 306.684C328.56 306.684 329.728 305.899 329.951 304.446H328.409C328.293 305.115 327.794 305.498 326.831 305.498C325.636 305.498 324.977 304.758 324.923 303.457H329.978V302.994C329.978 300.525 328.436 299.509 326.724 299.509C324.754 299.509 323.292 300.935 323.292 303.074V303.181C323.292 305.356 324.754 306.684 326.786 306.684ZM324.95 302.388C325.111 301.318 325.761 300.667 326.724 300.667C327.713 300.667 328.32 301.193 328.4 302.388H324.95ZM333.811 306.684C334.827 306.684 335.709 306.078 336.075 305.391V306.559H337.671V296.46H336.075V300.712C335.692 300.026 334.996 299.509 333.873 299.509C332.081 299.509 330.771 300.908 330.771 303.109V303.216C330.771 305.463 332.081 306.684 333.811 306.684ZM334.203 305.418C333.178 305.418 332.411 304.696 332.411 303.181V303.074C332.411 301.576 333.098 300.765 334.274 300.765C335.433 300.765 336.128 301.514 336.128 303.029V303.136C336.128 304.678 335.308 305.418 334.203 305.418ZM346.638 306.684C348.876 306.684 350.489 305.543 350.765 303.27H349.054C348.867 304.598 347.94 305.258 346.638 305.258C344.891 305.258 343.875 304.01 343.875 301.879V301.781C343.875 299.669 344.962 298.377 346.62 298.377C347.984 298.377 348.679 299.018 348.876 300.275H350.658C350.453 298.056 348.777 296.977 346.611 296.977C343.982 296.977 342.03 298.956 342.03 301.79V301.897C342.03 304.803 343.679 306.684 346.638 306.684ZM351.951 306.559H353.547V302.494C353.547 301.398 354.277 300.846 355.169 300.846C356.123 300.846 356.542 301.318 356.542 302.361V306.559H358.137V302.209C358.137 300.311 357.166 299.509 355.775 299.509C354.643 299.509 353.876 300.079 353.547 300.748V296.46H351.951V306.559ZM362.095 306.684C363.218 306.684 363.94 306.149 364.288 305.471V306.559H365.884V299.651H364.288V303.76C364.288 304.856 363.539 305.409 362.675 305.409C361.756 305.409 361.32 304.928 361.32 303.894V299.651H359.724V304.072C359.724 305.908 360.74 306.684 362.095 306.684ZM367.586 306.559H369.182V302.967C369.182 301.505 370.029 301.051 371.428 301.042V299.544C370.26 299.562 369.619 300.079 369.182 300.944V299.651H367.586V306.559ZM372.658 306.559H374.254V302.494C374.254 301.398 374.976 300.846 375.876 300.846C376.83 300.846 377.249 301.318 377.249 302.361V306.559H378.845V302.209C378.845 300.311 377.864 299.509 376.483 299.509C375.35 299.509 374.584 300.079 374.254 300.748V299.651H372.658V306.559ZM383.614 306.559H385.37V302.744H386.484L388.953 306.559H390.852L388.205 302.477C389.381 302.174 390.299 301.425 390.299 299.945V299.892C390.299 297.967 388.846 297.12 386.778 297.12H383.614V306.559ZM385.37 301.487V298.484H386.778C387.901 298.484 388.57 298.849 388.57 299.928V299.981C388.57 300.988 387.955 301.487 386.778 301.487H385.37ZM391.975 306.559H393.571V299.651H391.975V306.559ZM392.751 298.519C393.277 298.519 393.696 298.127 393.696 297.61C393.696 297.084 393.277 296.683 392.751 296.683C392.225 296.683 391.797 297.084 391.797 297.61C391.797 298.127 392.225 298.519 392.751 298.519ZM397.716 306.684C399.481 306.684 400.47 305.881 400.47 304.482C400.47 303.02 399.508 302.619 397.885 302.37C396.789 302.191 396.459 301.986 396.459 301.487C396.459 300.997 396.869 300.667 397.555 300.667C398.295 300.667 398.652 300.961 398.786 301.594H400.256C400.087 300.034 398.964 299.509 397.555 299.509C396.263 299.509 394.97 300.195 394.97 301.576C394.97 302.878 395.639 303.386 397.466 303.68C398.483 303.849 398.937 304.063 398.937 304.625C398.937 305.213 398.554 305.516 397.698 305.516C396.762 305.516 396.406 305.106 396.325 304.402H394.828C394.89 305.873 395.933 306.684 397.716 306.684ZM401.692 306.559H403.287V303.163L405.881 306.559H407.726L404.82 302.824L407.504 299.651H405.756L403.287 302.691V296.46H401.692V306.559Z" fill="#0D0D0D"/>
<path d="M463.979 318.35C467.224 318.35 469.283 316.728 469.283 314.116C469.283 312.236 468.195 311.068 466.555 310.694C467.919 310.177 468.846 309.205 468.846 307.601C468.846 305.506 467.125 303.804 464.175 303.804C461.153 303.804 459.308 305.684 459.165 308.136H461.501C461.661 306.709 462.633 305.8 464.139 305.8C465.601 305.8 466.332 306.656 466.332 307.806C466.332 309.125 465.601 309.883 463.979 309.883H462.972V311.763H464.059C465.779 311.763 466.608 312.53 466.608 314.081C466.608 315.48 465.762 316.371 463.916 316.371C462.018 316.371 461.189 315.266 461.046 313.778H458.657C458.773 316.487 460.618 318.35 463.979 318.35ZM473.972 309.125C473.036 309.125 472.447 308.492 472.447 307.289C472.447 306.103 473.036 305.444 473.972 305.444C474.899 305.444 475.478 306.139 475.478 307.289C475.478 308.456 474.899 309.125 473.972 309.125ZM473.954 310.729C475.888 310.729 477.395 309.268 477.395 307.271C477.395 305.292 475.87 303.866 473.972 303.866C472.073 303.866 470.504 305.328 470.504 307.307C470.504 309.268 472.01 310.729 473.954 310.729ZM472.447 318.154H474.132L483.233 304H481.575L472.447 318.154ZM481.727 316.746C480.8 316.746 480.202 316.113 480.202 314.909C480.202 313.724 480.8 313.064 481.727 313.064C482.663 313.064 483.233 313.76 483.233 314.909C483.233 316.077 482.663 316.746 481.727 316.746ZM481.709 318.35C483.652 318.35 485.177 316.888 485.177 314.892C485.177 312.913 483.634 311.487 481.727 311.487C479.828 311.487 478.286 312.949 478.286 314.927C478.286 316.888 479.775 318.35 481.709 318.35Z" fill="#0D0D0D"/>
<path d="M279.56 322.115H280.861V315.163H279.56V322.115ZM282.287 322.115H283.464V319.12C283.464 318.318 283.999 317.908 284.658 317.908C285.363 317.908 285.666 318.255 285.666 319.022V322.115H286.842V318.915C286.842 317.516 286.129 316.927 285.104 316.927C284.266 316.927 283.705 317.346 283.464 317.836V317.034H282.287V322.115ZM291.986 322.204C292.351 322.204 292.601 322.141 292.788 322.079V321.143C292.619 321.215 292.449 321.241 292.209 321.241C291.843 321.241 291.629 321.036 291.629 320.591V317.917H292.743V317.034H291.629V315.911H290.453V317.034H289.775V317.917H290.453V320.698C290.453 321.66 290.978 322.204 291.986 322.204ZM293.724 322.115H294.901V319.12C294.901 318.318 295.436 317.908 296.095 317.908C296.799 317.908 297.102 318.255 297.102 319.022V322.115H298.279V318.915C298.279 317.516 297.566 316.927 296.541 316.927C295.703 316.927 295.141 317.346 294.901 317.836V314.681H293.724V322.115ZM301.729 322.213C303.03 322.213 303.895 321.625 304.064 320.564H302.923C302.834 321.054 302.469 321.339 301.756 321.339C300.882 321.339 300.401 320.796 300.356 319.833H304.082V319.494C304.082 317.676 302.941 316.927 301.684 316.927C300.231 316.927 299.153 317.979 299.153 319.548V319.628C299.153 321.232 300.231 322.213 301.729 322.213ZM300.383 319.04C300.499 318.255 300.971 317.783 301.684 317.783C302.415 317.783 302.861 318.166 302.914 319.04H300.383ZM307.193 322.115H308.37V319.12C308.37 318.318 308.905 317.908 309.564 317.908C310.269 317.908 310.581 318.255 310.581 319.022V322.115H311.757V318.915C311.757 317.516 311.035 316.927 310.019 316.927C309.181 316.927 308.619 317.346 308.37 317.836V317.034H307.193V322.115ZM315.207 322.213C316.508 322.213 317.373 321.625 317.534 320.564H316.401C316.312 321.054 315.938 321.339 315.234 321.339C314.36 321.339 313.87 320.796 313.834 319.833H317.551V319.494C317.551 317.676 316.419 316.927 315.154 316.927C313.709 316.927 312.631 317.979 312.631 319.548V319.628C312.631 321.232 313.709 322.213 315.207 322.213ZM313.852 319.04C313.968 318.255 314.449 317.783 315.154 317.783C315.884 317.783 316.33 318.166 316.393 319.04H313.852ZM317.97 322.115H319.201L320.413 320.279L321.598 322.115H322.971L321.153 319.423L322.793 317.034H321.563L320.511 318.674L319.45 317.034H318.086L319.744 319.512L317.97 322.115ZM325.467 322.204C325.824 322.204 326.082 322.141 326.269 322.079V321.143C326.1 321.215 325.922 321.241 325.69 321.241C325.325 321.241 325.111 321.036 325.111 320.591V317.917H326.225V317.034H325.111V315.911H323.934V317.034H323.256V317.917H323.934V320.698C323.934 321.66 324.46 322.204 325.467 322.204ZM331.636 322.204C333.427 322.204 334.435 320.929 334.435 318.648V318.282C334.435 316.286 333.543 315.056 331.725 315.056C330.138 315.056 329.149 316.018 329.149 317.444C329.149 318.808 330.111 319.699 331.457 319.699C332.278 319.699 332.848 319.343 333.169 318.817C333.142 320.403 332.607 321.206 331.618 321.206C330.869 321.206 330.548 320.849 330.423 320.305H329.211C329.372 321.5 330.218 322.204 331.636 322.204ZM331.725 318.79C330.931 318.79 330.423 318.238 330.423 317.4C330.423 316.58 330.94 316.018 331.716 316.018C332.509 316.018 333.071 316.562 333.071 317.498C333.071 318.264 332.509 318.79 331.725 318.79ZM338.143 321.179C337.109 321.179 336.503 320.386 336.503 318.808V318.46C336.503 316.918 337.082 316.081 338.125 316.081C339.168 316.081 339.73 316.972 339.73 318.451V318.79C339.73 320.368 339.213 321.179 338.143 321.179ZM338.116 322.213C339.935 322.213 341.022 320.885 341.022 318.79V318.443C341.022 316.348 339.881 315.073 338.116 315.073C336.369 315.073 335.201 316.366 335.201 318.469V318.817C335.201 320.911 336.351 322.213 338.116 322.213ZM346.183 322.213C346.932 322.213 347.583 321.767 347.85 321.259V322.115H349.027V314.681H347.85V317.81C347.574 317.302 347.057 316.927 346.228 316.927C344.909 316.927 343.946 317.952 343.946 319.575V319.655C343.946 321.313 344.909 322.213 346.183 322.213ZM346.469 321.277C345.711 321.277 345.149 320.742 345.149 319.628V319.548C345.149 318.451 345.658 317.845 346.522 317.845C347.378 317.845 347.895 318.407 347.895 319.521V319.601C347.895 320.733 347.289 321.277 346.469 321.277ZM351.621 322.213C352.397 322.213 352.842 321.928 353.172 321.491V322.115H354.331V318.781C354.331 317.391 353.44 316.927 352.299 316.927C351.166 316.927 350.222 317.418 350.124 318.603H351.256C351.318 318.104 351.621 317.81 352.227 317.81C352.923 317.81 353.154 318.148 353.154 318.826V319.093H352.521C351.068 319.093 349.919 319.521 349.919 320.706C349.919 321.767 350.685 322.213 351.621 322.213ZM351.897 321.366C351.318 321.366 351.086 321.081 351.086 320.653C351.086 320.038 351.657 319.833 352.548 319.833H353.154V320.332C353.154 320.992 352.619 321.366 351.897 321.366ZM356.114 323.853H357.264L360.036 317.034H358.895L357.647 320.305L356.292 317.034H355.026L357.032 321.598L356.114 323.853ZM362.577 322.213C363.878 322.213 364.609 321.616 364.609 320.591C364.609 319.512 363.896 319.218 362.701 319.031C361.899 318.897 361.649 318.755 361.649 318.38C361.649 318.024 361.953 317.783 362.461 317.783C363.004 317.783 363.263 317.997 363.361 318.46H364.448C364.324 317.311 363.504 316.927 362.461 316.927C361.507 316.927 360.553 317.426 360.553 318.451C360.553 319.405 361.052 319.78 362.389 319.993C363.138 320.118 363.477 320.279 363.477 320.698C363.477 321.125 363.201 321.348 362.568 321.348C361.872 321.348 361.614 321.045 361.551 320.528H360.446C360.5 321.607 361.266 322.213 362.577 322.213Z" fill="#9FAAB3"/>
<path d="M247.029 296.874C253.817 296.874 259.328 302.384 259.328 309.171C259.328 315.958 253.817 321.469 247.029 321.469C240.242 321.469 234.73 315.958 234.73 309.171C234.73 302.384 240.242 296.874 247.029 296.874Z" fill="#4E5DFF"/>
<path d="M222.689 45.9142V326.317C222.689 327.891 221.411 329.17 219.836 329.17H20.5184C18.9436 329.17 17.665 327.891 17.665 326.317V45.9142C17.665 44.3396 18.9436 43.0612 20.5184 43.0612H219.836C221.411 43.0612 222.689 44.3396 222.689 45.9142Z" fill="#D8D8D8"/>
<path d="M211.432 32.1944L212.37 312.595C212.375 314.17 211.101 315.453 209.526 315.458L5.30683 316.141C3.73205 316.146 2.44917 314.872 2.44391 313.297L1.50631 32.8964C1.50631 32.8964 2.77536 30.0391 4.35015 30.0338L208.569 29.3509C210.144 29.3457 211.427 30.6198 211.432 32.1944Z" fill="white"/>
<path d="M211.901 32.5446V312.947C211.901 314.522 210.623 315.8 209.048 315.8H4.82783C3.25303 315.8 1.97443 314.522 1.97443 312.947V32.5446C1.97443 30.97 3.25303 29.6915 4.82783 29.6915H209.048C210.623 29.6915 211.901 30.97 211.901 32.5446Z" stroke="#0C0C0C" stroke-width="4.14"/>
<path d="M21.7014 172.312H192.094" stroke="#E6E8E8" stroke-width="2.626" stroke-linecap="square"/>
<path d="M21.7014 203.903H192.094" stroke="#E6E8E8" stroke-width="2.626" stroke-linecap="square"/>
<path d="M21.7014 235.495H192.094" stroke="#E6E8E8" stroke-width="2.626" stroke-linecap="square"/>
<path d="M21.7014 267.086H192.094" stroke="#E6E8E8" stroke-width="2.626" stroke-linecap="square"/>
<path d="M22.7621 288.581C24.0012 288.581 24.8391 287.903 24.8391 286.442V281.753H23.5822V286.415C23.5822 287.244 23.1811 287.565 22.566 287.565C22.1738 287.565 21.942 287.493 21.7014 287.395V288.376C21.9153 288.492 22.2005 288.581 22.7621 288.581ZM27.0587 288.59C27.8164 288.59 28.2443 288.313 28.5652 287.885V288.492H29.6884V285.256C29.6884 283.91 28.8237 283.456 27.7184 283.456C26.613 283.456 25.7038 283.937 25.6057 285.087H26.7111C26.7646 284.597 27.0587 284.311 27.656 284.311C28.3245 284.311 28.5474 284.641 28.5474 285.31V285.559H27.9323C26.5239 285.559 25.4096 285.978 25.4096 287.128C25.4096 288.153 26.1495 288.59 27.0587 288.59ZM27.3351 287.77C26.7646 287.77 26.5417 287.493 26.5417 287.074C26.5417 286.477 27.0944 286.272 27.968 286.272H28.5474V286.762C28.5474 287.395 28.0304 287.77 27.3351 287.77ZM30.8651 288.492H32.0061V285.586C32.0061 284.802 32.532 284.409 33.1738 284.409C33.8513 284.409 34.1544 284.748 34.1544 285.497V288.492H35.2954V285.39C35.2954 284.035 34.5911 283.456 33.6017 283.456C32.7905 283.456 32.2467 283.866 32.0061 284.347V283.563H30.8651V288.492Z" fill="black"/>
<path d="M51.5547 288.072H52.8027V285.309H55.1025V284.337H52.8027V282.332H55.7265V281.333H51.5547V288.072ZM58.7662 288.17C60.032 288.17 60.8699 287.599 61.0304 286.565H59.925C59.8448 287.047 59.4793 287.314 58.7929 287.314C57.9461 287.314 57.4736 286.788 57.438 285.852H61.0482V285.523C61.0482 283.767 59.9429 283.036 58.7216 283.036C57.3132 283.036 56.2702 284.052 56.2702 285.585V285.656C56.2702 287.216 57.3132 288.17 58.7662 288.17ZM57.4558 285.095C57.5717 284.328 58.0263 283.865 58.7216 283.865C59.4258 283.865 59.8626 284.248 59.9161 285.095H57.4558ZM64.6852 288.17C65.9599 288.17 66.878 287.207 66.878 285.621V285.549C66.878 283.954 65.9242 283.036 64.6852 283.036C63.9631 283.036 63.348 283.464 63.0717 283.936V280.861H61.9307V288.072H63.0717V287.278C63.3391 287.778 63.9007 288.17 64.6852 288.17ZM64.3999 287.261C63.5709 287.261 63.036 286.744 63.036 285.638V285.567C63.036 284.471 63.6066 283.936 64.391 283.936C65.1398 283.936 65.7014 284.471 65.7014 285.567V285.638C65.7014 286.699 65.2467 287.261 64.3999 287.261Z" fill="black"/>
<path d="M82.754 288.492H83.8861V283.402L85.9274 288.492H86.3375L88.3432 283.402V288.492H89.6001V281.753H87.9331L86.2038 286.352L84.4299 281.753H82.754V288.492ZM92.1851 288.59C92.9428 288.59 93.3707 288.313 93.6916 287.885V288.492H94.8148V285.256C94.8148 283.91 93.9501 283.456 92.8448 283.456C91.7484 283.456 90.8302 283.937 90.7321 285.087H91.8375C91.891 284.597 92.1851 284.311 92.7824 284.311C93.4509 284.311 93.6738 284.641 93.6738 285.31V285.559H93.0676C91.6503 285.559 90.536 285.978 90.536 287.128C90.536 288.153 91.2848 288.59 92.1851 288.59ZM92.4615 287.77C91.891 287.77 91.6681 287.493 91.6681 287.074C91.6681 286.477 92.2208 286.272 93.0944 286.272H93.6738V286.762C93.6738 287.395 93.1568 287.77 92.4615 287.77ZM96.0004 288.492H97.1414V285.925C97.1414 284.882 97.7386 284.561 98.737 284.552V283.482C97.908 283.491 97.4534 283.866 97.1414 284.49V283.563H96.0004V288.492Z" fill="black"/>
<path d="M113.436 288.492H114.613L115.139 286.825H117.715L118.25 288.492H119.551L117.323 281.753H115.683L113.436 288.492ZM116.431 282.778L117.421 285.907H115.433L116.431 282.778ZM120.389 290.176H121.53V287.716C121.798 288.197 122.359 288.59 123.144 288.59C124.419 288.59 125.328 287.627 125.328 286.04V285.969C125.328 284.374 124.383 283.456 123.144 283.456C122.422 283.456 121.807 283.884 121.53 284.356V283.563H120.389V290.176ZM122.859 287.68C122.03 287.68 121.495 287.164 121.495 286.058V285.987C121.495 284.891 122.056 284.356 122.85 284.356C123.598 284.356 124.16 284.891 124.16 285.987V286.058C124.16 287.119 123.696 287.68 122.859 287.68ZM126.219 288.492H127.36V285.925C127.36 284.882 127.966 284.561 128.965 284.552V283.482C128.136 283.491 127.672 283.866 127.36 284.49V283.563H126.219V288.492Z" fill="black"/>
<path d="M144.261 288.492H145.393V283.402L147.435 288.492H147.845L149.85 283.402V288.492H151.107V281.753H149.44L147.711 286.352L145.937 281.753H144.261V288.492ZM153.692 288.59C154.45 288.59 154.878 288.313 155.199 287.885V288.492H156.322V285.256C156.322 283.91 155.457 283.456 154.352 283.456C153.256 283.456 152.337 283.937 152.239 285.087H153.345C153.398 284.597 153.692 284.311 154.29 284.311C154.958 284.311 155.181 284.641 155.181 285.31V285.559H154.575C153.158 285.559 152.043 285.978 152.043 287.128C152.043 288.153 152.792 288.59 153.692 288.59ZM153.969 287.77C153.398 287.77 153.175 287.493 153.175 287.074C153.175 286.477 153.728 286.272 154.602 286.272H155.181V286.762C155.181 287.395 154.664 287.77 153.969 287.77ZM158.051 290.176H159.175L161.858 283.563H160.752L159.54 286.736L158.23 283.563H157L158.943 287.992L158.051 290.176Z" fill="black"/>
<path d="M177.867 288.581C179.106 288.581 179.944 287.903 179.944 286.442V281.753H178.688V286.415C178.688 287.244 178.286 287.565 177.671 287.565C177.279 287.565 177.047 287.493 176.807 287.395V288.376C177.021 288.492 177.306 288.581 177.867 288.581ZM182.521 288.59C183.323 288.59 183.84 288.197 184.089 287.716V288.492H185.23V283.563H184.089V286.495C184.089 287.279 183.546 287.672 182.94 287.672C182.28 287.672 181.968 287.333 181.968 286.584V283.563H180.827V286.718C180.827 288.028 181.549 288.59 182.521 288.59ZM186.443 288.492H187.584V285.586C187.584 284.802 188.101 284.409 188.743 284.409C189.42 284.409 189.723 284.748 189.723 285.497V288.492H190.864V285.39C190.864 284.035 190.169 283.456 189.179 283.456C188.368 283.456 187.816 283.866 187.584 284.347V283.563H186.443V288.492Z" fill="black"/>
<path d="M192.46 171.177V246.546C192.46 250.097 189.576 252.981 186.024 252.981C182.472 252.981 179.588 250.097 179.588 246.546V171.177C179.588 167.626 182.472 164.742 186.024 164.742C189.576 164.742 192.46 167.626 192.46 171.177Z" fill="#4E5DFF"/>
<g opacity="0.2">
<path d="M192.46 193.308V246.546C192.46 250.097 189.576 252.981 186.024 252.981C182.472 252.981 179.588 250.097 179.588 246.546V193.308C179.588 189.757 182.472 186.873 186.024 186.873C189.576 186.873 192.46 189.757 192.46 193.308Z" fill="white"/>
</g>
<path d="M129.17 193.308V246.546C129.17 250.097 126.286 252.981 122.734 252.981C119.182 252.981 116.298 250.097 116.298 246.546V193.308C116.298 189.757 119.182 186.873 122.734 186.873C126.286 186.873 129.17 189.757 129.17 193.308Z" fill="#4E5DFF"/>
<g opacity="0.2">
<path d="M129.17 212.38V246.546C129.17 250.097 126.286 252.981 122.734 252.981C119.182 252.981 116.298 250.097 116.298 246.546V212.38C116.298 208.829 119.182 205.945 122.734 205.945C126.286 205.945 129.17 208.829 129.17 212.38Z" fill="white"/>
</g>
<path d="M160.815 186.288V246.546C160.815 250.097 157.931 252.981 154.379 252.981C150.827 252.981 147.943 250.097 147.943 246.546V186.288C147.943 182.737 150.827 179.853 154.379 179.853C157.931 179.853 160.815 182.737 160.815 186.288Z" fill="#4E5DFF"/>
<g opacity="0.2">
<path d="M160.815 222.911V246.545C160.815 250.097 157.931 252.981 154.379 252.981C150.827 252.981 147.943 250.097 147.943 246.545V222.911C147.943 219.359 150.827 216.475 154.379 216.475C157.931 216.475 160.815 219.359 160.815 222.911Z" fill="white"/>
</g>
<path d="M97.5247 204.601V246.546C97.5247 250.097 94.6407 252.981 91.0887 252.981C87.5367 252.981 84.6527 250.097 84.6527 246.546V204.601C84.6527 201.05 87.5367 198.166 91.0887 198.166C94.6407 198.166 97.5247 201.05 97.5247 204.601Z" fill="#4E5DFF"/>
<g opacity="0.2">
<path d="M97.5247 219.308V246.546C97.5247 250.097 94.6407 252.981 91.0887 252.981C87.5367 252.981 84.6527 250.097 84.6527 246.546V219.308C84.6527 215.756 87.5367 212.872 91.0887 212.872C94.6407 212.872 97.5247 215.756 97.5247 219.308Z" fill="white"/>
</g>
<path d="M65.8797 220.199V246.546C65.8797 250.097 62.9957 252.981 59.4437 252.981C55.8917 252.981 53.0077 250.097 53.0077 246.546V220.199C53.0077 216.647 55.8917 213.764 59.4437 213.764C62.9957 213.764 65.8797 216.647 65.8797 220.199Z" fill="#4E5DFF"/>
<g opacity="0.2">
<path d="M65.8797 242.481V246.546C65.8797 250.097 62.9957 252.981 59.4437 252.981C55.8917 252.981 53.0077 250.097 53.0077 246.546V242.481C53.0077 238.93 55.8917 236.046 59.4437 236.046C62.9957 236.046 65.8797 238.93 65.8797 242.481Z" fill="white"/>
</g>
<path d="M34.2346 243.373V246.546C34.2346 250.097 31.3506 252.981 27.7986 252.981C24.2466 252.981 21.3626 250.097 21.3626 246.546V243.373C21.3626 239.821 24.2466 236.938 27.7986 236.938C31.3506 236.938 34.2346 239.821 34.2346 243.373Z" fill="#4E5DFF"/>
<path d="M55.7488 60.4826H57.3801V57.1402H58.6102C60.4911 57.1402 61.8371 56.3113 61.8371 54.4574V54.4039C61.8371 52.5678 60.5446 51.6943 58.5745 51.6943H55.7488V60.4826ZM57.3801 55.9548V52.96H58.5745C59.6175 52.96 60.2326 53.3611 60.2326 54.4039V54.4574C60.2326 55.4289 59.6532 55.9548 58.5745 55.9548H57.3801ZM62.9335 60.4826H64.4222V57.1402C64.4222 55.7765 65.2156 55.3576 66.517 55.3398V53.9493C65.4384 53.9672 64.8322 54.4485 64.4222 55.2596V54.0474H62.9335V60.4826ZM70.4927 60.6074C72.1418 60.6074 73.2382 59.8676 73.4433 58.5128H72.0081C71.8922 59.1456 71.4287 59.5022 70.5284 59.5022C69.423 59.5022 68.8079 58.807 68.7545 57.5948H73.47V57.167C73.47 54.8674 72.0259 53.9137 70.4303 53.9137C68.594 53.9137 67.2301 55.2417 67.2301 57.2383V57.3363C67.2301 59.3685 68.594 60.6074 70.4927 60.6074ZM68.7812 56.5965C68.9327 55.5983 69.53 55.0011 70.4303 55.0011C71.3574 55.0011 71.919 55.4913 71.9903 56.5965H68.7812ZM77.0356 60.6074C77.9805 60.6074 78.8096 60.037 79.1483 59.4041V60.4826H80.6369V51.0793H79.1483V55.0367C78.7917 54.395 78.141 53.9137 77.098 53.9137C75.4222 53.9137 74.2099 55.2239 74.2099 57.2739V57.372C74.2099 59.4665 75.4222 60.6074 77.0356 60.6074ZM77.4011 59.422C76.4473 59.422 75.7342 58.7535 75.7342 57.3363V57.2383C75.7342 55.8478 76.3671 55.0813 77.4635 55.0813C78.551 55.0813 79.2018 55.7854 79.2018 57.2026V57.3006C79.2018 58.7356 78.4352 59.422 77.4011 59.422ZM82.2682 60.4826H83.7569V54.0474H82.2682V60.4826ZM82.9992 52.9956C83.4895 52.9956 83.8817 52.6213 83.8817 52.1489C83.8817 51.6498 83.4895 51.2843 82.9992 51.2843C82.5 51.2843 82.1078 51.6498 82.1078 52.1489C82.1078 52.6213 82.5 52.9956 82.9992 52.9956ZM88.2407 60.6074C89.9789 60.6074 91.1021 59.5646 91.2091 58.085H89.8452C89.765 58.9941 89.0875 59.4665 88.2942 59.4665C87.2066 59.4665 86.5113 58.7267 86.5113 57.3185V57.2204C86.5113 55.8924 87.2423 55.108 88.2585 55.108C89.0519 55.108 89.6134 55.4646 89.7382 56.3291H91.1734C91.004 54.5554 89.6669 53.9137 88.2407 53.9137C86.44 53.9137 84.987 55.2061 84.987 57.2472V57.3452C84.987 59.4041 86.3955 60.6074 88.2407 60.6074ZM94.5073 60.5896C94.9619 60.5896 95.2828 60.5183 95.5146 60.438V59.2526C95.3096 59.3417 95.0867 59.3774 94.7925 59.3774C94.329 59.3774 94.0527 59.1189 94.0527 58.5485V55.1704H95.47V54.0474H94.0527V52.6391H92.564V54.0474H91.7083V55.1704H92.564V58.6911C92.564 59.9033 93.2326 60.5896 94.5073 60.5896ZM99.5348 60.6074C101.184 60.6074 102.271 59.8676 102.485 58.5128H101.05C100.934 59.1456 100.471 59.5022 99.5705 59.5022C98.4651 59.5022 97.8501 58.807 97.7966 57.5948H102.512V57.167C102.512 54.8674 101.068 53.9137 99.4724 53.9137C97.6361 53.9137 96.2723 55.2417 96.2723 57.2383V57.3363C96.2723 59.3685 97.6361 60.6074 99.5348 60.6074ZM97.8233 56.5965C97.9749 55.5983 98.5721 55.0011 99.4724 55.0011C100.391 55.0011 100.961 55.4913 101.032 56.5965H97.8233ZM106.078 60.6074C107.023 60.6074 107.843 60.037 108.19 59.4041V60.4826H109.679V51.0793H108.19V55.0367C107.834 54.395 107.183 53.9137 106.14 53.9137C104.464 53.9137 103.243 55.2239 103.243 57.2739V57.372C103.243 59.4665 104.464 60.6074 106.078 60.6074ZM106.443 59.422C105.489 59.422 104.776 58.7535 104.776 57.3363V57.2383C104.776 55.8478 105.409 55.0813 106.506 55.0813C107.584 55.0813 108.244 55.7854 108.244 57.2026V57.3006C108.244 58.7356 107.477 59.422 106.443 59.422ZM118.032 60.6074C120.117 60.6074 121.624 59.5378 121.882 57.4254H120.278C120.109 58.6643 119.244 59.2793 118.032 59.2793C116.409 59.2793 115.464 58.1117 115.464 56.133V56.035C115.464 54.0652 116.472 52.862 118.023 52.862C119.288 52.862 119.939 53.4591 120.117 54.6267H121.784C121.588 52.5678 120.019 51.5517 118.005 51.5517C115.562 51.5517 113.735 53.3967 113.735 56.0439V56.142C113.735 58.8515 115.277 60.6074 118.032 60.6074ZM125.136 60.6074C126.179 60.6074 126.857 60.0993 127.177 59.4754V60.4826H128.666V54.0474H127.177V57.88C127.177 58.8961 126.482 59.413 125.68 59.413C124.815 59.413 124.414 58.9674 124.414 57.9959V54.0474H122.925V58.1741C122.925 59.8765 123.87 60.6074 125.136 60.6074ZM132.455 60.6074C134.104 60.6074 135.022 59.8587 135.022 58.5485C135.022 57.1848 134.122 56.8193 132.615 56.5876C131.59 56.4093 131.287 56.2311 131.287 55.7587C131.287 55.3041 131.67 55.0011 132.303 55.0011C132.998 55.0011 133.328 55.2685 133.453 55.8567H134.826C134.665 54.4039 133.622 53.9137 132.303 53.9137C131.1 53.9137 129.896 54.5554 129.896 55.8478C129.896 57.0511 130.52 57.5324 132.223 57.7998C133.168 57.9602 133.596 58.1563 133.596 58.6911C133.596 59.2259 133.239 59.5111 132.437 59.5111C131.563 59.5111 131.233 59.1278 131.162 58.4772H129.763C129.825 59.8409 130.797 60.6074 132.455 60.6074ZM138.356 60.5896C138.81 60.5896 139.122 60.5183 139.363 60.438V59.2526C139.149 59.3417 138.926 59.3774 138.632 59.3774C138.169 59.3774 137.892 59.1189 137.892 58.5485V55.1704H139.31V54.0474H137.892V52.6391H136.412V54.0474H135.548V55.1704H136.412V58.6911C136.412 59.9033 137.072 60.5896 138.356 60.5896ZM143.428 59.4487C142.296 59.4487 141.645 58.6287 141.645 57.3096V57.2115C141.645 55.8835 142.314 55.0813 143.428 55.0813C144.533 55.0813 145.193 55.8924 145.193 57.2204V57.3096C145.193 58.6287 144.533 59.4487 143.428 59.4487ZM143.41 60.6074C145.309 60.6074 146.717 59.3061 146.717 57.3006V57.2026C146.717 55.2328 145.309 53.9137 143.428 53.9137C141.529 53.9137 140.112 55.2417 140.112 57.2383V57.3363C140.112 59.2883 141.52 60.6074 143.41 60.6074ZM147.885 60.4826H149.374V56.6322C149.374 55.6517 150.051 55.1615 150.791 55.1615C151.513 55.1615 151.932 55.5626 151.932 56.5074V60.4826H153.421V56.6322C153.421 55.6517 154.098 55.1615 154.838 55.1615C155.569 55.1615 155.979 55.5626 155.979 56.5074V60.4826H157.468V56.4093C157.468 54.6446 156.505 53.9137 155.328 53.9137C154.526 53.9137 153.643 54.2702 153.153 55.0724C152.832 54.2702 152.164 53.9137 151.326 53.9137C150.381 53.9137 149.686 54.4306 149.374 55.0367V54.0474H147.885V60.4826ZM161.8 60.6074C163.449 60.6074 164.545 59.8676 164.759 58.5128H163.315C163.208 59.1456 162.736 59.5022 161.844 59.5022C160.73 59.5022 160.115 58.807 160.07 57.5948H164.777V57.167C164.777 54.8674 163.342 53.9137 161.746 53.9137C159.91 53.9137 158.546 55.2417 158.546 57.2383V57.3363C158.546 59.3685 159.91 60.6074 161.8 60.6074ZM160.097 56.5965C160.24 55.5983 160.846 55.0011 161.746 55.0011C162.664 55.0011 163.226 55.4913 163.306 56.5965H160.097ZM165.936 60.4826H167.425V57.1402C167.425 55.7765 168.209 55.3576 169.511 55.3398V53.9493C168.432 53.9672 167.826 54.4485 167.425 55.2596V54.0474H165.936V60.4826ZM72.3557 76.5261H77.7488V75.2248H73.9959V67.7378H72.3557V76.5261ZM78.8809 76.5261H80.3695V70.0909H78.8809V76.5261ZM79.6029 69.0391C80.1021 69.0391 80.4943 68.6648 80.4943 68.1924C80.4943 67.6933 80.1021 67.3278 79.6029 67.3278C79.1126 67.3278 78.7204 67.6933 78.7204 68.1924C78.7204 68.6648 79.1126 69.0391 79.6029 69.0391ZM82.2861 76.5261H83.7747V71.2139H85.2455V70.0909H83.7747V69.1728C83.7747 68.6202 84.0243 68.228 84.6305 68.228C84.8979 68.228 85.1297 68.2726 85.299 68.335V67.1763C85.0316 67.0961 84.8087 67.0604 84.4522 67.0604C83.0794 67.0604 82.2861 67.818 82.2861 69.2352V70.0909H81.4125V71.2139H82.2861V76.5261ZM89.1588 76.6509C90.8079 76.6509 91.9044 75.9111 92.1094 74.5563H90.6742C90.5583 75.1891 90.0948 75.5457 89.1945 75.5457C88.0891 75.5457 87.4741 74.8504 87.4206 73.6383H92.1361V73.2104C92.1361 70.9109 90.6921 69.9572 89.0964 69.9572C87.269 69.9572 85.8963 71.2852 85.8963 73.2817V73.3798C85.8963 75.412 87.269 76.6509 89.1588 76.6509ZM87.4473 72.64C87.5989 71.6417 88.1961 71.0446 89.0964 71.0446C90.0235 71.0446 90.5851 71.5348 90.6564 72.64H87.4473ZM95.4789 76.633C95.9335 76.633 96.2544 76.5617 96.4862 76.4815V75.2961C96.2812 75.3852 96.0583 75.4209 95.7642 75.4209C95.2917 75.4209 95.0243 75.1624 95.0243 74.592V71.2139H96.4416V70.0909H95.0243V68.6826H93.5356V70.0909H92.6799V71.2139H93.5356V74.7346C93.5356 75.9467 94.2042 76.633 95.4789 76.633ZM97.7164 76.5261H99.1961V70.0909H97.7164V76.5261ZM98.4384 69.0391C98.9287 69.0391 99.3209 68.6648 99.3209 68.1924C99.3209 67.6933 98.9287 67.3278 98.4384 67.3278C97.9481 67.3278 97.5559 67.6933 97.5559 68.1924C97.5559 68.6648 97.9481 69.0391 98.4384 69.0391ZM100.863 76.5261H102.352V72.6756C102.352 71.6952 103.029 71.205 103.769 71.205C104.491 71.205 104.91 71.6061 104.91 72.5509V76.5261H106.399V72.6756C106.399 71.6952 107.076 71.205 107.807 71.205C108.547 71.205 108.957 71.6061 108.957 72.5509V76.5261H110.446V72.4528C110.446 70.688 109.483 69.9572 108.306 69.9572C107.504 69.9572 106.622 70.3137 106.122 71.1159C105.81 70.3137 105.142 69.9572 104.304 69.9572C103.359 69.9572 102.655 70.4741 102.352 71.0802V70.0909H100.863V76.5261ZM114.778 76.6509C116.427 76.6509 117.523 75.9111 117.729 74.5563H116.293C116.186 75.1891 115.714 75.5457 114.814 75.5457C113.708 75.5457 113.093 74.8504 113.049 73.6383H117.755V73.2104C117.755 70.9109 116.32 69.9572 114.716 69.9572C112.888 69.9572 111.524 71.2852 111.524 73.2817V73.3798C111.524 75.412 112.888 76.6509 114.778 76.6509ZM113.066 72.64C113.218 71.6417 113.824 71.0446 114.716 71.0446C115.643 71.0446 116.204 71.5348 116.284 72.64H113.066ZM124.058 76.5261H125.956L128.925 67.7378H127.391L125.092 74.8683L122.801 67.7378H121.098L124.058 76.5261ZM131.661 76.6509C132.642 76.6509 133.212 76.2943 133.631 75.7417V76.5261H135.093V72.3102C135.093 70.5543 133.961 69.9572 132.526 69.9572C131.082 69.9572 129.887 70.59 129.771 72.0874H131.207C131.278 71.4456 131.661 71.0802 132.437 71.0802C133.31 71.0802 133.605 71.508 133.605 72.3726V72.7024H132.802C130.957 72.7024 129.513 73.2461 129.513 74.7435C129.513 76.0804 130.485 76.6509 131.661 76.6509ZM132.018 75.5813C131.278 75.5813 130.984 75.2248 130.984 74.6811C130.984 73.8967 131.715 73.6383 132.847 73.6383H133.605V74.28C133.605 75.1 132.927 75.5813 132.018 75.5813ZM136.671 76.5261H138.16V67.1228H136.671V76.5261ZM141.975 76.6509C143.018 76.6509 143.695 76.1428 144.016 75.5189V76.5261H145.505V70.0909H144.016V73.9235C144.016 74.9396 143.312 75.4565 142.51 75.4565C141.654 75.4565 141.244 75.0109 141.244 74.0393V70.0909H139.755V74.2176C139.755 75.92 140.709 76.6509 141.975 76.6509ZM149.917 76.6509C151.566 76.6509 152.654 75.9111 152.868 74.5563H151.424C151.317 75.1891 150.853 75.5457 149.953 75.5457C148.848 75.5457 148.233 74.8504 148.179 73.6383H152.895V73.2104C152.895 70.9109 151.451 69.9572 149.855 69.9572C148.019 69.9572 146.655 71.2852 146.655 73.2817V73.3798C146.655 75.412 148.019 76.6509 149.917 76.6509ZM148.206 72.64C148.357 71.6417 148.955 71.0446 149.855 71.0446C150.773 71.0446 151.344 71.5348 151.415 72.64H148.206Z" fill="#0D0D0D"/>
<path d="M65.0195 95.3977H66.3209V88.4455H65.0195V95.3977ZM67.7472 95.3977H68.9238V92.4029C68.9238 91.6008 69.4587 91.1908 70.1183 91.1908C70.8225 91.1908 71.1256 91.5384 71.1256 92.3049V95.3977H72.3023V92.1979C72.3023 90.7986 71.5892 90.2103 70.564 90.2103C69.7261 90.2103 69.1645 90.6292 68.9238 91.1195V90.3173H67.7472V95.3977ZM77.4457 95.4868C77.8112 95.4868 78.0608 95.4245 78.248 95.3621V94.4262C78.0786 94.4975 77.9093 94.5242 77.6686 94.5242C77.3031 94.5242 77.0892 94.3192 77.0892 93.8736V91.1997H78.2034V90.3173H77.0892V89.1942H75.9125V90.3173H75.235V91.1997H75.9125V93.9805C75.9125 94.9431 76.4384 95.4868 77.4457 95.4868ZM79.184 95.3977H80.3606V92.4029C80.3606 91.6008 80.8955 91.1908 81.5551 91.1908C82.2593 91.1908 82.5624 91.5384 82.5624 92.3049V95.3977H83.7391V92.1979C83.7391 90.7986 83.026 90.2103 82.0008 90.2103C81.1629 90.2103 80.6013 90.6292 80.3606 91.1195V87.9642H79.184V95.3977ZM87.1888 95.4958C88.4903 95.4958 89.355 94.9075 89.5243 93.8468H88.3833C88.2942 94.3371 87.9287 94.6223 87.2156 94.6223C86.342 94.6223 85.8606 94.0786 85.8161 93.116H89.5422V92.7773C89.5422 90.959 88.4012 90.2103 87.1443 90.2103C85.6913 90.2103 84.6127 91.2621 84.6127 92.8308V92.911C84.6127 94.5153 85.6913 95.4958 87.1888 95.4958ZM85.8428 92.3227C85.9587 91.5384 86.4311 91.066 87.1443 91.066C87.8752 91.066 88.3209 91.4492 88.3744 92.3227H85.8428ZM92.6532 95.3977H93.8298V92.4029C93.8298 91.6008 94.3647 91.1908 95.0243 91.1908C95.7285 91.1908 96.0405 91.5384 96.0405 92.3049V95.3977H97.2172V92.1979C97.2172 90.7986 96.4952 90.2103 95.479 90.2103C94.641 90.2103 94.0794 90.6292 93.8298 91.1195V90.3173H92.6532V95.3977ZM100.667 95.4958C101.968 95.4958 102.833 94.9075 102.994 93.8468H101.861C101.772 94.3371 101.398 94.6223 100.694 94.6223C99.8201 94.6223 99.3298 94.0786 99.2942 93.116H103.011V92.7773C103.011 90.959 101.879 90.2103 100.613 90.2103C99.1694 90.2103 98.0908 91.2621 98.0908 92.8308V92.911C98.0908 94.5153 99.1694 95.4958 100.667 95.4958ZM99.312 92.3227C99.4279 91.5384 99.9093 91.066 100.613 91.066C101.344 91.066 101.79 91.4492 101.853 92.3227H99.312ZM103.43 95.3977H104.66L105.873 93.5616L107.058 95.3977H108.431L106.613 92.706L108.253 90.3173H107.023L105.971 91.9573L104.91 90.3173H103.546L105.204 92.7951L103.43 95.3977ZM110.927 95.4868C111.284 95.4868 111.542 95.4245 111.729 95.3621V94.4262C111.56 94.4975 111.382 94.5242 111.15 94.5242C110.784 94.5242 110.571 94.3192 110.571 93.8736V91.1997H111.685V90.3173H110.571V89.1942H109.394V90.3173H108.716V91.1997H109.394V93.9805C109.394 94.9431 109.92 95.4868 110.927 95.4868ZM115.946 95.3977H117.247V88.4455H116.088L114.475 89.5953V90.7362L115.946 89.729V95.3977ZM118.21 95.3977H123.229V94.3995H120.278L121.82 92.8931C122.649 92.091 123.184 91.3066 123.184 90.4064C123.184 89.1764 122.328 88.3564 120.893 88.3564C119.422 88.3564 118.513 89.2299 118.424 90.7451H119.609C119.725 89.7647 120.162 89.3636 120.848 89.3636C121.526 89.3636 121.891 89.7736 121.891 90.4242C121.891 91.0838 121.49 91.6988 120.831 92.394L118.21 95.166V95.3977ZM126.491 95.3977H127.668V92.3584C127.668 91.574 128.203 91.1908 128.782 91.1908C129.361 91.1908 129.691 91.5116 129.691 92.2603V95.3977H130.868V92.3584C130.868 91.574 131.403 91.1908 131.982 91.1908C132.571 91.1908 132.891 91.5116 132.891 92.2603V95.3977H134.068V92.1801C134.068 90.7808 133.301 90.2103 132.374 90.2103C131.742 90.2103 131.037 90.4866 130.654 91.1195C130.395 90.4866 129.878 90.2103 129.21 90.2103C128.461 90.2103 127.908 90.6203 127.668 91.0927V90.3173H126.491V95.3977ZM137.527 94.5777C136.635 94.5777 136.118 93.9271 136.118 92.8931V92.8129C136.118 91.7612 136.653 91.1284 137.527 91.1284C138.4 91.1284 138.926 91.7701 138.926 92.8218V92.8931C138.926 93.9271 138.4 94.5777 137.527 94.5777ZM137.518 95.4958C139.015 95.4958 140.139 94.4618 140.139 92.8842V92.804C140.139 91.2442 139.015 90.2103 137.527 90.2103C136.029 90.2103 134.915 91.2621 134.915 92.8308V92.911C134.915 94.4529 136.02 95.4958 137.518 95.4958ZM141.057 95.3977H142.233V92.4029C142.233 91.6008 142.768 91.1908 143.428 91.1908C144.123 91.1908 144.435 91.5384 144.435 92.3049V95.3977H145.612V92.1979C145.612 90.7986 144.899 90.2103 143.874 90.2103C143.036 90.2103 142.474 90.6292 142.233 91.1195V90.3173H141.057V95.3977ZM148.554 95.4868C148.919 95.4868 149.169 95.4245 149.356 95.3621V94.4262C149.186 94.4975 149.017 94.5242 148.776 94.5242C148.411 94.5242 148.197 94.3192 148.197 93.8736V91.1997H149.311V90.3173H148.197V89.1942H147.02V90.3173H146.343V91.1997H147.02V93.9805C147.02 94.9431 147.546 95.4868 148.554 95.4868ZM150.292 95.3977H151.468V92.4029C151.468 91.6008 152.003 91.1908 152.663 91.1908C153.367 91.1908 153.67 91.5384 153.67 92.3049V95.3977H154.847V92.1979C154.847 90.7986 154.134 90.2103 153.109 90.2103C152.271 90.2103 151.709 90.6292 151.468 91.1195V87.9642H150.292V95.3977ZM157.806 95.4958C159.108 95.4958 159.83 94.8986 159.83 93.8736C159.83 92.7951 159.126 92.501 157.931 92.3138C157.12 92.1801 156.879 92.0375 156.879 91.6631C156.879 91.3066 157.182 91.066 157.682 91.066C158.234 91.066 158.493 91.2799 158.591 91.7434H159.678C159.554 90.5936 158.724 90.2103 157.682 90.2103C156.737 90.2103 155.783 90.7095 155.783 91.7345C155.783 92.6881 156.273 93.0625 157.619 93.2764C158.368 93.4012 158.707 93.5616 158.707 93.9805C158.707 94.4084 158.421 94.6312 157.789 94.6312C157.102 94.6312 156.844 94.3281 156.781 93.8112H155.676C155.72 94.8897 156.487 95.4958 157.806 95.4958Z" fill="#9FAAB3"/>
<g opacity="0.83333">
<path d="M94.8193 131.897H98.3225V113.197H95.2115L90.8704 116.281V119.338L94.8193 116.646V131.897ZM108.743 132.155C112.514 132.155 115.705 130.194 115.705 126.504C115.705 124.231 114.421 122.609 112.22 121.825C113.895 121.094 114.992 119.81 114.992 117.903C114.992 114.81 112.095 112.93 108.743 112.93C105.498 112.93 102.468 114.792 102.468 117.957C102.468 119.81 103.511 121.174 105.24 121.852C103.145 122.582 101.728 124.231 101.728 126.611C101.728 130.274 105.026 132.155 108.743 132.155ZM108.743 129.543C106.862 129.543 105.24 128.42 105.24 126.326C105.24 124.231 106.862 123.108 108.77 123.108C110.704 123.108 112.22 124.231 112.22 126.299C112.22 128.394 110.731 129.543 108.743 129.543ZM108.797 120.835C107.174 120.835 105.784 119.837 105.784 118.135C105.784 116.459 107.094 115.443 108.743 115.443C110.419 115.443 111.703 116.513 111.703 118.108C111.703 119.81 110.499 120.835 108.797 120.835ZM123.906 132.155C127.935 132.155 130.788 129.677 130.788 125.72C130.788 121.798 128.408 119.445 125.038 119.445C123.05 119.445 121.74 120.176 121.009 121.014L121.036 115.942H129.718V113.197H118.361L118.21 123.607H119.984C120.822 122.636 121.972 121.985 123.879 121.985C125.947 121.985 127.258 123.42 127.258 125.666C127.258 127.975 126.028 129.463 123.879 129.463C121.472 129.463 120.768 128.26 120.483 126.531H117.238C117.443 129.748 119.511 132.155 123.906 132.155ZM139.497 132.128C144.31 132.128 147.029 128.706 147.029 122.556V121.593C147.029 116.201 144.622 112.903 139.737 112.903C135.468 112.903 132.802 115.497 132.802 119.311C132.802 123.001 135.387 125.381 138.998 125.381C141.226 125.381 142.742 124.445 143.606 123.028C143.553 127.288 142.118 129.437 139.443 129.437C137.429 129.437 136.564 128.492 136.225 127.03H132.954C133.4 130.248 135.682 132.128 139.497 132.128ZM139.737 122.948C137.589 122.948 136.225 121.459 136.225 119.213C136.225 116.985 137.616 115.497 139.711 115.497C141.85 115.497 143.348 116.958 143.348 119.472C143.348 121.54 141.85 122.948 139.737 122.948Z" fill="#0D0D0D"/>
</g>
<g opacity="0.83333">
<path d="M73.5877 123.946H75.8073C76.0747 124.838 76.2797 125.693 76.2797 126.584C76.2797 127.217 76.1728 127.681 76.0212 128.126C74.2117 128.626 73.4005 130.355 73.2757 131.897H75.9945C76.0747 131.246 76.5204 130.586 77.5366 130.586C78.9272 130.586 80.7814 132.128 83.2149 132.128C86.0407 132.128 87.6363 130.114 87.7879 127.369H84.7303C84.6233 128.813 83.8656 129.33 82.6355 129.33C81.6995 129.33 80.4159 128.652 78.9718 128.26C79.159 127.761 79.2927 127.244 79.2927 126.611C79.2927 125.649 79.1857 124.784 79.0253 123.946H83.7854V121.718H78.5796C78.4013 120.782 78.2408 119.811 78.2408 118.714C78.2408 116.851 79.4175 115.648 81.1468 115.648C82.9564 115.648 83.7141 116.593 84.0261 118.429H87.2976C87.0569 115.131 84.9888 112.956 81.0666 112.956C77.5099 112.956 74.7376 115.131 74.7376 118.581C74.7376 119.757 74.9248 120.782 75.1566 121.718H73.5877V123.946Z" fill="#0D0D0D"/>
</g>
</svg>
